<svg width="698" height="1545" fill="none" xmlns="http://www.w3.org/2000/svg" xmlns:xlink="http://www.w3.org/1999/xlink"><g clip-path="url(#a)"><rect width="698" height="1545" rx="10" fill="url(#b)"/><path fill="url(#c)" fill-opacity=".75" style="mix-blend-mode:overlay" d="M0 0h698v1545H0z" opacity=".5"/><path d="M65.54 1093v-11.88l.98.82c-.72 0-1.433.03-2.14.1-.707.05-1.347.13-1.92.22v-2.14c.547-.09 1.2-.17 1.96-.22.773-.07 1.54-.1 2.3-.1s1.52.03 2.28.1c.76.05 1.413.13 1.96.22v2.14c-.4-.07-.82-.12-1.26-.16a26 26 0 0 0-1.34-.12 22 22 0 0 0-1.44-.04l.96-.82V1093zm6.66-9.56h2.28v5.78c0 .59.16 1.05.48 1.4s.753.52 1.3.52c.533 0 .96-.17 1.28-.52s.48-.81.48-1.4v-5.78h2.28v5.64c0 1.29-.367 2.31-1.1 3.04q-1.08 1.08-2.94 1.08c-1.86 0-2.227-.36-2.96-1.08-.734-.73-1.1-1.75-1.1-3.04zm14.797 9.76q-1.46 0-2.62-.66a5 5 0 0 1-1.8-1.8q-.64-1.14-.64-2.52c0-.92.22-1.75.66-2.5q.66-1.14 1.8-1.8c.76-.45 1.613-.68 2.56-.68s1.787.21 2.52.62q1.1.6 1.74 1.68c.44.72.66 1.55.66 2.48v.62h-8.56v-1.48h6.98l-.64.78v-.34q0-.765-.36-1.32a2.4 2.4 0 0 0-.98-.9c-.4-.23-.853-.34-1.36-.34-.48 0-.933.13-1.36.38-.413.24-.753.57-1.02.98-.254.41-.38.88-.38 1.4v.72c0 .55.126 1.03.38 1.46.267.43.613.76 1.04 1 .426.23.886.34 1.38.34.56 0 1.06-.11 1.5-.32.453-.23.826-.57 1.12-1.04h2.2c-.213.64-.56 1.21-1.04 1.7a5.1 5.1 0 0 1-1.68 1.14c-.64.27-1.34.4-2.1.4m6.351-.2v-1.86h3.66q.58 0 .9-.24.32-.255.32-.72c0-.28-.126-.49-.38-.64a2.9 2.9 0 0 0-.94-.38q-.56-.135-1.22-.3a6.5 6.5 0 0 1-1.22-.48c-.373-.2-.686-.47-.94-.82q-.36-.54-.36-1.44 0-1.185.86-1.92c.574-.51 1.34-.76 2.3-.76h3.62v1.86h-3.54c-.346 0-.606.07-.78.22-.16.15-.24.34-.24.58 0 .27.12.47.36.62q.36.225.94.36c.387.09.794.2 1.22.32.44.11.847.26 1.22.46q.58.3.94.84.38.54.38 1.44c0 .83-.3 1.51-.9 2.06-.6.53-1.433.8-2.5.8zm17.555 0h-3.74c-1.093 0-2.053-.21-2.88-.62-.826-.43-1.473-1.02-1.94-1.78-.453-.76-.68-1.63-.68-2.6 0-.92.2-1.73.6-2.44.4-.72.934-1.29 1.6-1.7.68-.41 1.454-.62 2.32-.62.867 0 1.647.23 2.34.68.694.44 1.227 1.07 1.6 1.9l-.92.7c-.346-.4-.76-.71-1.24-.92a3.4 3.4 0 0 0-1.4-.32q-.78 0-1.38.36c-.4.23-.713.55-.94.98q-.32.615-.32 1.44 0 .84.38 1.5c.267.44.634.79 1.1 1.04a3.5 3.5 0 0 0 1.64.38h2.04l-.46.46V1080h2.28zm5.358.2c-.72 0-1.36-.13-1.92-.38q-.82-.405-1.3-1.08c-.306-.47-.46-1-.46-1.6s.154-1.13.46-1.58q.48-.705 1.3-1.08c.56-.25 1.214-.38 1.96-.38 1.08 0 1.94.27 2.58.8s.96 1.25.96 2.14c0 .96-.326 1.73-.98 2.3-.64.57-1.506.86-2.6.86m.48-1.64c.6 0 1.08-.13 1.44-.4.374-.28.56-.65.56-1.1 0-.44-.18-.79-.54-1.04-.36-.27-.846-.4-1.46-.4-.6 0-1.08.13-1.44.4-.36.25-.54.61-.54 1.06q0 .675.54 1.08c.36.27.84.4 1.44.4m4.26 1.44h-2.08v-2.14h-.18v-3.92c0-.57-.16-1.02-.48-1.34q-.46-.48-1.28-.48c-.44 0-.806.11-1.1.32q-.44.3-.58.84h-2.22c.08-.6.294-1.13.64-1.58.36-.45.82-.81 1.38-1.06.56-.27 1.18-.4 1.86-.4 1.254 0 2.24.35 2.96 1.06q1.08 1.065 1.08 2.88zm1.739-5.14c0-.69.053-1.41.16-2.14q.16-1.095.5-2.28h2.28c-.24.93-.413 1.74-.52 2.42s-.16 1.33-.16 1.94q0 1.545.78 2.34c.52.53 1.22.8 2.1.8h.32v2.2h-.32c-1 0-1.893-.21-2.68-.62a4.6 4.6 0 0 1-1.82-1.82c-.427-.79-.64-1.73-.64-2.84m3.24 8.14 3.46-12.56h2.34l-3.4 12.56zm15.816-2.8c-.987 0-1.853-.19-2.6-.58a4.47 4.47 0 0 1-1.76-1.66q-.62-1.065-.62-2.4h2.22q0 .735.34 1.32c.24.39.567.69.98.92.413.21.88.32 1.4.32q.8 0 1.4-.3c.413-.21.727-.5.94-.86q.34-.54.34-1.2c0-.47-.12-.87-.36-1.22-.24-.36-.56-.65-.96-.86s-.853-.32-1.36-.32h-.46v-1.88h.5c.947 0 1.787.19 2.52.56.747.36 1.333.87 1.76 1.52q.64.96.64 2.22 0 1.275-.64 2.28c-.427.67-1.013 1.19-1.76 1.58-.733.37-1.573.56-2.52.56m2.12-6.52-1.3-1.34c.32-.28.56-.57.72-.86s.24-.6.24-.92c0-.35-.087-.65-.26-.92a1.44 1.44 0 0 0-.7-.6 2.16 2.16 0 0 0-1-.22q-.52 0-.96.24a1.9 1.9 0 0 0-.7.64q-.26.405-.26.9h-2.18q0-1.065.54-1.92.54-.885 1.46-1.38c.627-.33 1.327-.5 2.1-.5q1.2 0 2.14.48c.627.31 1.113.73 1.46 1.28q.54.795.54 1.86c0 .63-.147 1.2-.44 1.72-.28.52-.747 1.03-1.4 1.54m6.457-.18c0 .63.113 1.21.34 1.76q.36.825.96 1.44t1.4.96c.533.23 1.113.34 1.74.34a4.3 4.3 0 0 0 3.12-1.3q.62-.615.96-1.44c.227-.55.34-1.13.34-1.76s-.113-1.21-.34-1.76a4.3 4.3 0 0 0-.96-1.44 4.3 4.3 0 0 0-3.12-1.3c-.627 0-1.207.11-1.74.34q-.8.345-1.4.96t-.96 1.44c-.227.55-.34 1.13-.34 1.76m-2.4 0c0-.95.173-1.82.52-2.62a6.63 6.63 0 0 1 3.64-3.56c.827-.35 1.72-.52 2.68-.52.947 0 1.833.17 2.66.52a6.63 6.63 0 0 1 3.64 3.56c.36.8.54 1.67.54 2.62q0 1.425-.54 2.64a6.6 6.6 0 0 1-1.46 2.12 7 7 0 0 1-2.18 1.44 7.1 7.1 0 0 1-2.66.5c-.96 0-1.853-.17-2.68-.5a7 7 0 0 1-2.18-1.44 6.6 6.6 0 0 1-1.46-2.12 6.6 6.6 0 0 1-.52-2.64m21.759-5.06.88.7h-3.46V1080h4.9v8.86q0 1.965-1.16 3.06-1.16 1.08-3.24 1.08h-.5v-2.18h.5q1 0 1.54-.48.54-.495.54-1.44zm4.42 2h2.28v5.78c0 .59.16 1.05.48 1.4s.754.52 1.3.52c.534 0 .96-.17 1.28-.52s.48-.81.48-1.4v-5.78h2.28v5.64c0 1.29-.366 2.31-1.1 3.04q-1.08 1.08-2.94 1.08c-1.86 0-2.226-.36-2.96-1.08-.733-.73-1.1-1.75-1.1-3.04zm13.738 9.56h-.46c-1.067 0-1.88-.25-2.44-.76q-.82-.78-.82-2.28V1080h2.28v9.8q0 .6.28.9c.187.19.467.28.84.28h.32zm1.061-5.14c0-.69.053-1.41.16-2.14q.16-1.095.5-2.28h2.28c-.24.93-.413 1.74-.52 2.42s-.16 1.33-.16 1.94q0 1.545.78 2.34c.52.53 1.22.8 2.1.8h.32v2.2h-.32c-1 0-1.893-.21-2.68-.62a4.6 4.6 0 0 1-1.82-1.82c-.427-.79-.64-1.73-.64-2.84m3.24 8.14 3.46-12.56h2.34l-3.4 12.56zm10.896-3 5.56-7.08c.387-.48.647-.87.78-1.18.147-.31.22-.63.22-.98s-.093-.66-.28-.94a1.8 1.8 0 0 0-.72-.66 2.1 2.1 0 0 0-1.02-.26c-.387 0-.74.09-1.06.26q-.46.24-.74.66c-.187.28-.28.59-.28.94s.067.65.2.92.333.53.6.78l-1.32 1.72c-1.173-.89-1.76-2.02-1.76-3.38q0-1.14.56-2.04c.387-.6.907-1.07 1.56-1.42q1-.54 2.24-.54c.827 0 1.567.17 2.22.52.653.33 1.167.8 1.54 1.4.387.59.58 1.25.58 2 0 .36-.047.71-.14 1.06a4.3 4.3 0 0 1-.48 1.06c-.213.36-.507.79-.88 1.28l-4.32 5.48-.08-1.74h6.3v2.14zm12.696-6.5c0 .63.113 1.21.34 1.76q.36.825.96 1.44t1.4.96c.533.23 1.113.34 1.74.34a4.3 4.3 0 0 0 3.12-1.3q.62-.615.96-1.44c.227-.55.34-1.13.34-1.76s-.113-1.21-.34-1.76a4.3 4.3 0 0 0-.96-1.44 4.3 4.3 0 0 0-3.12-1.3c-.627 0-1.207.11-1.74.34q-.8.345-1.4.96t-.96 1.44c-.227.55-.34 1.13-.34 1.76m-2.4 0c0-.95.173-1.82.52-2.62a6.63 6.63 0 0 1 3.64-3.56c.827-.35 1.72-.52 2.68-.52.947 0 1.833.17 2.66.52a6.63 6.63 0 0 1 3.64 3.56c.36.8.54 1.67.54 2.62q0 1.425-.54 2.64a6.6 6.6 0 0 1-1.46 2.12 7 7 0 0 1-2.18 1.44 7.1 7.1 0 0 1-2.66.5c-.96 0-1.853-.17-2.68-.5a7 7 0 0 1-2.18-1.44 6.6 6.6 0 0 1-1.46-2.12 6.6 6.6 0 0 1-.52-2.64m14.88 6.5 5.56-7.08c.386-.48.646-.87.78-1.18.146-.31.22-.63.22-.98s-.094-.66-.28-.94q-.261-.42-.72-.66a2.1 2.1 0 0 0-1.02-.26c-.387 0-.74.09-1.06.26q-.46.24-.74.66c-.187.28-.28.59-.28.94s.066.65.2.92q.2.405.6.78l-1.32 1.72c-1.174-.89-1.76-2.02-1.76-3.38q0-1.14.56-2.04c.386-.6.906-1.07 1.56-1.42q1-.54 2.24-.54c.826 0 1.566.17 2.22.52.653.33 1.166.8 1.54 1.4.386.59.58 1.25.58 2 0 .36-.047.71-.14 1.06-.094.33-.254.69-.48 1.06-.214.36-.507.79-.88 1.28l-4.32 5.48-.08-1.74h6.3v2.14zm16.738-9.56h2.28v9.56h-2.28v-1.42c0-.52-.113-.93-.34-1.24a2.55 2.55 0 0 0-.9-.78q-.54-.3-1.22-.54c-.44-.16-.886-.35-1.34-.56-.44-.21-.846-.49-1.22-.82-.36-.35-.653-.79-.88-1.34q-.34-.825-.34-2.1v-4.2h2.34v4.08c0 .6.1 1.07.3 1.42s.46.62.78.82c.334.2.694.37 1.08.52q.6.195 1.18.48c.387.19.74.44 1.06.76q.501.48.78 1.32c.2.55.3 1.27.3 2.18l-1.58-2.22zM67.1 650.2a5.2 5.2 0 0 1-2.28-.5 4.04 4.04 0 0 1-1.62-1.4q-.6-.92-.6-2.2h2.32q0 .6.26 1.06.28.46.78.72t1.12.26q.9 0 1.46-.48t.56-1.22q0-.58-.34-.94a2.7 2.7 0 0 0-.9-.64 11 11 0 0 0-1.24-.48q-.66-.22-1.34-.52-.66-.3-1.22-.72a3.15 3.15 0 0 1-.9-1.06q-.32-.64-.32-1.62 0-1 .52-1.82a3.93 3.93 0 0 1 1.46-1.34q.94-.5 2.1-.5 1.26 0 2.22.5.96.48 1.5 1.36t.54 2.02h-2.32q0-.82-.54-1.32t-1.4-.5q-.48 0-.88.2c-.4.2-.48.32-.64.56a1.32 1.32 0 0 0-.24.78q0 .56.34.92a3.1 3.1 0 0 0 .9.6q.56.26 1.22.5.68.22 1.34.52.68.28 1.24.72c.56.44.673.66.9 1.1q.34.66.34 1.64a3.5 3.5 0 0 1-.56 1.94 3.9 3.9 0 0 1-1.54 1.36q-.96.5-2.24.5m9.279 0q-1.08 0-1.92-.38a3.36 3.36 0 0 1-1.3-1.08q-.46-.7-.46-1.6t.46-1.58q.48-.7 1.3-1.08.84-.38 1.96-.38 1.62 0 2.58.8t.96 2.14q0 1.44-.98 2.3-.96.86-2.6.86m.48-1.64q.9 0 1.44-.4.56-.42.56-1.1 0-.66-.54-1.04-.54-.4-1.46-.4-.9 0-1.44.4-.54.38-.54 1.06t.54 1.08 1.44.4m4.26 1.44h-2.08v-2.14h-.18v-3.92q0-.86-.48-1.34-.46-.48-1.28-.48-.66 0-1.1.32-.44.3-.58.84h-2.22q.12-.9.64-1.58a3.65 3.65 0 0 1 1.38-1.06q.84-.4 1.86-.4 1.88 0 2.96 1.06t1.08 2.88zm7.058-7.54h-3.42v-2.02h3.42zm-1.58 7.54q-1.74 0-2.66-.86-.9-.88-.9-2.54v-8.2l2.26-.54v8.66q0 .76.36 1.12.36.34 1.1.34h1.44V650zm3.259-9.56h2.28v5.78q0 .88.48 1.4t1.3.52q.8 0 1.28-.52t.48-1.4v-5.78h2.28v5.64q0 1.94-1.1 3.04-1.08 1.08-2.94 1.08c-1.86 0-2.227-.36-2.96-1.08q-1.1-1.1-1.1-3.04zM99.993 650v-9.56h2.08v2.4l-.78 1.58q0-2.04.96-3.1.98-1.08 2.66-1.08h.3v2.14h-.8q-1.06 0-1.6.56-.54.54-.54 1.62V650zm15.168 0h-3.74q-1.64 0-2.88-.62a4.8 4.8 0 0 1-1.94-1.78q-.68-1.14-.68-2.6 0-1.38.6-2.44a4.57 4.57 0 0 1 1.6-1.7q1.02-.62 2.32-.62t2.34.68q1.04.66 1.6 1.9l-.92.7q-.52-.6-1.24-.92a3.3 3.3 0 0 0-1.4-.32q-.78 0-1.38.36-.6.34-.94.98-.32.62-.32 1.44 0 .84.38 1.5.4.66 1.1 1.04.72.38 1.64.38h2.04l-.46.46V637h2.28zm5.358.2q-1.08 0-1.92-.38a3.36 3.36 0 0 1-1.3-1.08q-.46-.7-.46-1.6t.46-1.58q.48-.7 1.3-1.08.84-.38 1.96-.38 1.62 0 2.58.8t.96 2.14q0 1.44-.98 2.3-.96.86-2.6.86m.48-1.64q.9 0 1.44-.4.56-.42.56-1.1 0-.66-.54-1.04-.54-.4-1.46-.4-.9 0-1.44.4-.54.38-.54 1.06t.54 1.08 1.44.4m4.26 1.44h-2.08v-2.14h-.18v-3.92q0-.86-.48-1.34-.46-.48-1.28-.48-.66 0-1.1.32-.44.3-.58.84h-2.22q.12-.9.64-1.58a3.65 3.65 0 0 1 1.38-1.06q.84-.4 1.86-.4 1.88 0 2.96 1.06t1.08 2.88zm1.739-5.14q0-1.04.16-2.14t.5-2.28h2.28q-.36 1.4-.52 2.42t-.16 1.94q0 1.54.78 2.34t2.1.8h.32v2.2h-.32q-1.5 0-2.68-.62a4.6 4.6 0 0 1-1.82-1.82q-.64-1.18-.64-2.84m3.24 8.14 3.46-12.56h2.34l-3.4 12.56zm10.896-3 5.56-7.08q.579-.72.78-1.18.22-.46.22-.98c0-.52-.094-.66-.28-.94q-.261-.42-.72-.66a2.04 2.04 0 0 0-1.02-.26q-.58 0-1.06.26-.46.24-.74.66t-.28.94c0 .52.066.653.2.92q.2.4.6.78l-1.32 1.72q-1.76-1.34-1.76-3.38 0-1.14.56-2.04.579-.9 1.56-1.42 1-.54 2.24-.54 1.239 0 2.22.52a3.8 3.8 0 0 1 1.54 1.4q.58.88.58 2 0 .54-.14 1.06a4.4 4.4 0 0 1-.48 1.06q-.32.54-.88 1.28l-4.32 5.48-.08-1.74h6.3V650zm15.16 0h-2.4q.12-1.9.36-3.52t.66-3.12c.42-1.5.627-1.993 1.04-2.98q.64-1.5 1.52-3.1l.34 1.86h-6.7V637h8.68q-.76 1.62-1.3 2.94a35 35 0 0 0-.92 2.46 25 25 0 0 0-.64 2.32q-.24 1.14-.4 2.42a64 64 0 0 0-.24 2.86m11.173-11.56.88.7h-3.46V637h4.9v8.86q0 1.96-1.16 3.06-1.161 1.08-3.24 1.08h-.5v-2.18h.5q1 0 1.54-.48.54-.5.54-1.44zm4.42 2h2.28v5.78q0 .88.48 1.4t1.3.52q.8 0 1.28-.52t.48-1.4v-5.78h2.28v5.64q0 1.94-1.1 3.04-1.08 1.08-2.94 1.08c-1.86 0-2.227-.36-2.96-1.08q-1.1-1.1-1.1-3.04zm13.737 9.56h-.46q-1.6 0-2.44-.76-.82-.78-.82-2.28V637h2.28v9.8q0 .6.28.9.28.28.84.28h.32zm1.061-5.14q0-1.04.16-2.14a17 17 0 0 1 .5-2.28h2.28q-.36 1.4-.52 2.42t-.16 1.94q0 1.54.78 2.34t2.1.8h.32v2.2h-.32q-1.5 0-2.68-.62a4.6 4.6 0 0 1-1.82-1.82q-.64-1.18-.64-2.84m3.24 8.14 3.46-12.56h2.34l-3.4 12.56zm10.896-3 5.56-7.08q.58-.72.78-1.18.22-.46.22-.98c0-.52-.093-.66-.28-.94a1.8 1.8 0 0 0-.72-.66 2.04 2.04 0 0 0-1.02-.26q-.58 0-1.06.26-.46.24-.74.66t-.28.94c0 .52.067.653.2.92q.201.4.6.78l-1.32 1.72q-1.76-1.34-1.76-3.38 0-1.14.56-2.04a4.1 4.1 0 0 1 1.56-1.42q1-.54 2.24-.54t2.22.52q.98.5 1.54 1.4.58.88.58 2 0 .54-.14 1.06a4.3 4.3 0 0 1-.48 1.06q-.32.54-.88 1.28l-4.32 5.48-.08-1.74h6.3V650zm12.697-6.5q0 .94.34 1.76.36.82.96 1.44t1.4.96 1.74.34q.92 0 1.72-.34t1.4-.96q.62-.62.96-1.44t.34-1.76c0-.94-.114-1.213-.34-1.76a4.4 4.4 0 0 0-.96-1.44 4.2 4.2 0 0 0-1.4-.96 4.35 4.35 0 0 0-1.72-.34q-.94 0-1.74.34t-1.4.96-.96 1.44a4.5 4.5 0 0 0-.34 1.76m-2.4 0q0-1.42.52-2.62a6.62 6.62 0 0 1 3.64-3.56 6.9 6.9 0 0 1 2.68-.52q1.42 0 2.66.52a6.6 6.6 0 0 1 2.18 1.42 6.6 6.6 0 0 1 1.46 2.14q.54 1.2.54 2.62t-.54 2.64a6.6 6.6 0 0 1-1.46 2.12 6.9 6.9 0 0 1-2.18 1.44q-1.24.5-2.66.5-1.44 0-2.68-.5a6.9 6.9 0 0 1-2.18-1.44 6.6 6.6 0 0 1-1.46-2.12 6.7 6.7 0 0 1-.52-2.64m14.879 6.5 5.56-7.08q.58-.72.78-1.18.22-.46.22-.98c0-.52-.093-.66-.28-.94a1.8 1.8 0 0 0-.72-.66 2.04 2.04 0 0 0-1.02-.26q-.58 0-1.06.26-.46.24-.74.66t-.28.94c0 .52.067.653.2.92s.333.527.6.78l-1.32 1.72q-1.76-1.34-1.76-3.38 0-1.14.56-2.04a4.1 4.1 0 0 1 1.56-1.42q1-.54 2.24-.54t2.22.52q.98.5 1.54 1.4.58.88.58 2 0 .54-.14 1.06a4.3 4.3 0 0 1-.48 1.06q-.32.54-.88 1.28l-4.32 5.48-.08-1.74h6.3V650zm16.739-9.56h2.28V650h-2.28v-1.42q0-.78-.34-1.24a2.6 2.6 0 0 0-.9-.78q-.54-.3-1.22-.54-.66-.24-1.34-.56a5.3 5.3 0 0 1-1.22-.82q-.54-.52-.88-1.34t-.34-2.1V637h2.34v4.08q0 .9.3 1.42t.78.82q.5.3 1.08.52.6.2 1.18.48t1.06.76q.5.48.78 1.32.3.82.3 2.18l-1.58-2.22zM63.26 214v-13h2.34v10.98l-.28-.3q1.9 0 2.9-1.02 1.02-1.04 1.02-2.94V201h2.28v10.98l-.48-.3q1.26 0 2.06-.36t1.22-1.18q.44-.82.58-2.18l.8-6.96h2.38l-.8 6.96q-.24 2.16-1.06 3.5A4.76 4.76 0 0 1 74 213.4q-1.4.6-3.46.6h-1.06v-3.66l1.34-2.52q0 2.9-1.56 4.54-1.54 1.64-4.34 1.64zm20.69.2q-1.46 0-2.62-.66a5.06 5.06 0 0 1-1.8-1.8q-.64-1.14-.64-2.52t.66-2.5q.66-1.14 1.8-1.8 1.14-.68 2.56-.68t2.52.62q1.1.6 1.74 1.68.66 1.08.66 2.48v.62h-8.56v-1.48h6.98l-.64.78v-.34q0-.76-.36-1.32a2.45 2.45 0 0 0-.98-.9q-.6-.34-1.36-.34-.72 0-1.36.38a3 3 0 0 0-1.02.98q-.38.62-.38 1.4v.72q0 .82.38 1.46.4.64 1.04 1 .64.34 1.38.34a3.4 3.4 0 0 0 1.5-.32 2.8 2.8 0 0 0 1.12-1.04h2.2a4.4 4.4 0 0 1-1.04 1.7 5.1 5.1 0 0 1-1.68 1.14 5.4 5.4 0 0 1-2.1.4m15.371-.2h-3.74q-1.64 0-2.88-.62a4.8 4.8 0 0 1-1.94-1.78q-.68-1.14-.68-2.6 0-1.38.6-2.44a4.57 4.57 0 0 1 1.6-1.7q1.02-.62 2.32-.62t2.34.68q1.04.66 1.6 1.9l-.92.7q-.52-.6-1.24-.92a3.35 3.35 0 0 0-1.4-.32q-.78 0-1.38.36-.6.34-.94.98-.32.62-.32 1.44 0 .84.38 1.5.4.66 1.1 1.04.72.38 1.64.38h2.04l-.46.46V201h2.28zm4.178-7.16-.92 1.42q0-1.82.98-2.92 1-1.1 2.64-1.1 1.56 0 2.5 1.04.96 1.04.96 2.8V214h-2.28v-5.68q0-.9-.5-1.44t-1.34-.54c-.84 0-1.013.18-1.36.54q-.5.54-.5 1.44V214h-2.28v-9.56h2.1zm12.873 7.36q-1.46 0-2.62-.66a5.06 5.06 0 0 1-1.8-1.8q-.64-1.14-.64-2.52t.66-2.5q.66-1.14 1.8-1.8 1.14-.68 2.56-.68t2.52.62q1.1.6 1.74 1.68.66 1.08.66 2.48v.62h-8.56v-1.48h6.98l-.64.78v-.34q0-.76-.36-1.32a2.45 2.45 0 0 0-.98-.9q-.6-.34-1.36-.34-.72 0-1.36.38-.62.36-1.02.98-.38.62-.38 1.4v.72q0 .82.38 1.46.4.64 1.04 1 .64.34 1.38.34a3.4 3.4 0 0 0 1.5-.32 2.8 2.8 0 0 0 1.12-1.04h2.2a4.4 4.4 0 0 1-1.04 1.7 5.1 5.1 0 0 1-1.68 1.14 5.4 5.4 0 0 1-2.1.4m6.351-.2v-1.86h3.66q.58 0 .9-.24.32-.26.32-.72 0-.42-.38-.64-.36-.24-.94-.38-.56-.14-1.22-.3a6.5 6.5 0 0 1-1.22-.48 2.8 2.8 0 0 1-.94-.82q-.36-.54-.36-1.44 0-1.18.86-1.92.86-.76 2.3-.76h3.62v1.86h-3.54q-.519 0-.78.22a.75.75 0 0 0-.24.58q0 .4.36.62t.94.36 1.22.32q.66.16 1.22.46.58.3.94.84.38.54.38 1.44 0 1.24-.9 2.06-.9.8-2.5.8zm17.555 0h-3.74q-1.64 0-2.88-.62a4.8 4.8 0 0 1-1.94-1.78q-.68-1.14-.68-2.6 0-1.38.6-2.44a4.57 4.57 0 0 1 1.6-1.7q1.02-.62 2.32-.62t2.34.68q1.04.66 1.6 1.9l-.92.7q-.52-.6-1.24-.92a3.3 3.3 0 0 0-1.4-.32q-.78 0-1.38.36-.6.34-.94.98-.32.62-.32 1.44 0 .84.38 1.5.4.66 1.1 1.04.72.38 1.64.38h2.04l-.46.46V201h2.28zm5.358.2q-1.08 0-1.92-.38a3.36 3.36 0 0 1-1.3-1.08q-.46-.7-.46-1.6t.46-1.58q.48-.7 1.3-1.08.84-.38 1.96-.38 1.62 0 2.58.8t.96 2.14q0 1.44-.98 2.3-.96.86-2.6.86m.48-1.64q.9 0 1.44-.4.56-.42.56-1.1 0-.66-.54-1.04-.54-.4-1.46-.4-.9 0-1.44.4-.54.38-.54 1.06t.54 1.08 1.44.4m4.26 1.44h-2.08v-2.14h-.18v-3.92q0-.86-.48-1.34-.46-.48-1.28-.48-.66 0-1.1.32-.44.3-.58.84h-2.22q.12-.9.64-1.58a3.65 3.65 0 0 1 1.38-1.06q.84-.4 1.86-.4 1.88 0 2.96 1.06t1.08 2.88zm1.739-5.14q0-1.04.16-2.14a17 17 0 0 1 .5-2.28h2.28q-.36 1.4-.52 2.42t-.16 1.94q0 1.54.78 2.34t2.1.8h.32v2.2h-.32q-1.5 0-2.68-.62a4.6 4.6 0 0 1-1.82-1.82q-.64-1.18-.64-2.84m3.24 8.14 3.46-12.56h2.34l-3.4 12.56zm10.896-3 5.56-7.08q.58-.72.78-1.18.22-.46.22-.98c0-.52-.093-.66-.28-.94a1.8 1.8 0 0 0-.72-.66 2.04 2.04 0 0 0-1.02-.26q-.58 0-1.06.26-.46.24-.74.66t-.28.94c0 .52.067.653.2.92s.333.527.6.78l-1.32 1.72q-1.76-1.34-1.76-3.38 0-1.14.56-2.04a4.1 4.1 0 0 1 1.56-1.42q1-.54 2.24-.54t2.22.52q.98.5 1.54 1.4.58.88.58 2 0 .54-.14 1.06a4.3 4.3 0 0 1-.48 1.06q-.32.54-.88 1.28l-4.32 5.48-.08-1.74h6.3V214zm16.739-9.56h2.28V214h-2.28v-1.42q0-.78-.34-1.24a2.6 2.6 0 0 0-.9-.78q-.54-.3-1.22-.54-.66-.24-1.34-.56a5.3 5.3 0 0 1-1.22-.82q-.54-.52-.88-1.34t-.34-2.1V201h2.34v4.08q0 .9.3 1.42t.78.82q.5.3 1.08.52.6.2 1.18.48t1.06.76q.5.48.78 1.32.3.82.3 2.18l-1.58-2.22zm10.805-2 .88.7h-3.46V201h4.9v8.86q0 1.96-1.16 3.06-1.161 1.08-3.24 1.08h-.5v-2.18h.5q1 0 1.54-.48.54-.5.54-1.44zm4.42 2h2.28v5.78q0 .88.48 1.4t1.3.52q.8 0 1.28-.52t.48-1.4v-5.78h2.28v5.64q0 1.94-1.1 3.04-1.08 1.08-2.94 1.08c-1.86 0-2.227-.36-2.96-1.08q-1.1-1.1-1.1-3.04zm13.738 9.56h-.46q-1.6 0-2.44-.76-.82-.78-.82-2.28V201h2.28v9.8q0 .6.28.9.279.28.84.28h.32zm1.06-5.14q0-1.04.16-2.14a17 17 0 0 1 .5-2.28h2.28q-.36 1.4-.52 2.42t-.16 1.94q0 1.54.78 2.34t2.1.8h.32v2.2h-.32q-1.5 0-2.68-.62a4.6 4.6 0 0 1-1.82-1.82q-.64-1.18-.64-2.84m3.24 8.14 3.46-12.56h2.34l-3.4 12.56zm10.896-3 5.56-7.08q.58-.72.78-1.18.22-.46.22-.98c0-.52-.093-.66-.28-.94a1.8 1.8 0 0 0-.72-.66 2.04 2.04 0 0 0-1.02-.26q-.58 0-1.06.26-.46.24-.74.66t-.28.94c0 .52.067.653.2.92q.201.4.6.78l-1.32 1.72q-1.76-1.34-1.76-3.38 0-1.14.56-2.04a4.1 4.1 0 0 1 1.56-1.42q1-.54 2.24-.54t2.22.52q.98.5 1.54 1.4.58.88.58 2 0 .54-.14 1.06a4.3 4.3 0 0 1-.48 1.06q-.32.54-.88 1.28l-4.32 5.48-.08-1.74h6.3V214zm12.697-6.5q0 .94.34 1.76.36.82.96 1.44t1.4.96 1.74.34q.92 0 1.72-.34t1.4-.96q.62-.62.96-1.44t.34-1.76c0-.94-.114-1.213-.34-1.76a4.4 4.4 0 0 0-.96-1.44 4.2 4.2 0 0 0-1.4-.96 4.35 4.35 0 0 0-1.72-.34q-.94 0-1.74.34t-1.4.96-.96 1.44a4.5 4.5 0 0 0-.34 1.76m-2.4 0q0-1.42.52-2.62a6.62 6.62 0 0 1 3.64-3.56 6.9 6.9 0 0 1 2.68-.52q1.42 0 2.66.52a6.6 6.6 0 0 1 2.18 1.42 6.6 6.6 0 0 1 1.46 2.14q.54 1.2.54 2.62t-.54 2.64a6.6 6.6 0 0 1-1.46 2.12 6.9 6.9 0 0 1-2.18 1.44q-1.24.5-2.66.5-1.44 0-2.68-.5a6.9 6.9 0 0 1-2.18-1.44 6.6 6.6 0 0 1-1.46-2.12 6.7 6.7 0 0 1-.52-2.64m14.879 6.5 5.56-7.08q.58-.72.78-1.18.22-.46.22-.98c0-.52-.093-.66-.28-.94a1.8 1.8 0 0 0-.72-.66 2.04 2.04 0 0 0-1.02-.26q-.58 0-1.06.26-.46.24-.74.66t-.28.94c0 .52.067.653.2.92s.333.527.6.78l-1.32 1.72q-1.76-1.34-1.76-3.38 0-1.14.56-2.04a4.1 4.1 0 0 1 1.56-1.42q1-.54 2.24-.54t2.22.52q.98.5 1.54 1.4.58.88.58 2 0 .54-.14 1.06a4.3 4.3 0 0 1-.48 1.06q-.32.54-.88 1.28l-4.32 5.48-.08-1.74h6.3V214zm16.739-9.56h2.28V214h-2.28v-1.42q0-.78-.34-1.24a2.6 2.6 0 0 0-.9-.78q-.54-.3-1.22-.54-.66-.24-1.34-.56a5.3 5.3 0 0 1-1.22-.82q-.54-.52-.88-1.34t-.34-2.1V201h2.34v4.08q0 .9.3 1.42t.78.82q.5.3 1.08.52.6.2 1.18.48t1.06.76q.5.48.78 1.32.3.82.3 2.18l-1.58-2.22zm47.719-100.775-.723-2.058c8.311-2.933 13.893-10.842 13.893-19.684 0-11.502-9.329-20.86-20.796-20.86a20.7 20.7 0 0 0-6.35.99c-4.164 1.337-7.748 3.917-10.367 7.459a20.73 20.73 0 0 0-4.081 12.412h-2.175c0-4.98 1.559-9.723 4.507-13.712a22.89 22.89 0 0 1 18.465-9.33c12.667 0 22.972 10.336 22.972 23.042 0 9.766-6.168 18.504-15.346 21.742z" fill="#fff"/><path d="M314.591 90.182h-10.868l-3.359-10.368 8.793-6.409 8.793 6.409zM305.303 88h7.708l2.382-7.354-6.236-4.544-6.236 4.544z" fill="#fff"/><path d="m305.324 89.817-29.702 33.399h-2.914l30.577-34.384.417-.468zm11.913 13.544-8.429 9.48-.003.001-4.03 4.531h-2.914l13.583-15.276.002-.002.167-.187.807.721.006.004.001.003zm-29.153-20.729-.085.097-12.377 13.915h-2.914l6.523-7.334.002-.003 1.789-2.009v-.001l5.44-6.117.808.723.02.02zm21.073-15.141-7.341-5.61 1.318-1.735 6.023 4.602 6.022-4.602 1.318 1.735zm21.298 15.312-7.589-5.266 3.048-8.738 2.053.72-2.5 7.168 6.225 4.321z" fill="#fff"/><path d="m287.891 82.803-1.238-1.795 6.226-4.32-2.5-7.168 2.054-.721 3.047 8.738zm29.583 20.121-2.098-.58 2.451-8.904h9.246v2.182h-7.59z" fill="#fff"/><path d="M340 81.923c0 8.155-3.125 15.83-8.813 21.645h-3.182c6.015-5.272 9.82-13.02 9.82-21.645 0-15.847-12.852-28.742-28.651-28.742s-28.417 12.659-28.65 28.305h-2.174c.11-8.098 3.306-15.69 9.025-21.43 5.823-5.84 13.563-9.056 21.799-9.056s15.976 3.215 21.797 9.057C336.794 65.898 340 73.662 340 81.923M65.976 69.492q0 2.615.97 4.89a13 13 0 0 0 2.666 4.02 12.6 12.6 0 0 0 3.927 2.663q2.23.969 4.8.969t4.8-.969a12.6 12.6 0 0 0 3.927-2.663 13 13 0 0 0 2.667-4.02q.97-2.275.97-4.89t-.97-4.89a12.5 12.5 0 0 0-2.667-3.971 12.2 12.2 0 0 0-3.927-2.712q-2.23-.968-4.8-.968t-4.8.968a12.2 12.2 0 0 0-3.927 2.712 12.5 12.5 0 0 0-2.667 3.97q-.97 2.277-.97 4.891zm-3.976 0q0-3.39 1.26-6.295a16.3 16.3 0 0 1 3.491-5.18 16.2 16.2 0 0 1 5.237-3.439q2.957-1.26 6.351-1.259c3.394.001 4.38.42 6.352 1.26q2.957 1.21 5.187 3.437a15.9 15.9 0 0 1 3.54 5.181q1.26 2.905 1.26 6.295c0 3.39-.42 4.374-1.26 6.343a16 16 0 0 1-3.54 5.133 16.3 16.3 0 0 1-5.188 3.487q-2.957 1.21-6.35 1.21-3.395 0-6.352-1.21a16.9 16.9 0 0 1-5.237-3.487 16.4 16.4 0 0 1-3.49-5.133Q62 72.882 62 69.492m53.857 15.738h-15.515V53.754h3.878v27.843h11.637v3.631zm8.663 0 8.727-31.475h3.878l-8.484 31.474h-4.121zm-9.309-22.178q0-1.986.339-4.067.339-2.083 1.164-5.23h3.83q-.873 3.244-1.212 5.278a24.4 24.4 0 0 0-.34 4.019q0 4.552 2.473 7.021 2.521 2.421 7.079 2.421h1.163v3.632h-1.163q-4.218 0-7.224-1.55-2.958-1.548-4.558-4.454-1.551-2.954-1.551-7.07m26.512 22.178V53.754h2.085q3.782 0 6.788 1.307 3.054 1.308 5.042 3.68 1.988 2.325 2.57 5.569h-2.521q.63-3.244 2.569-5.569 1.988-2.372 4.994-3.68 3.055-1.307 6.837-1.307h2.084v31.474h-3.878v-28.18l1.115.58h-1.261q-2.812 0-4.897 1.26-2.084 1.21-3.248 3.486-1.116 2.276-1.115 5.327v7.844h-3.879V67.7q0-3.051-1.164-5.327-1.115-2.276-3.2-3.486-2.084-1.26-4.896-1.26h-1.261l1.115-.58v28.181h-3.879zm37.736 0V53.754h9.212q3.395 0 5.915 1.21 2.57 1.211 3.976 3.39 1.455 2.131 1.455 5.036 0 2.76-.922 4.6-.872 1.84-2.375 3.05a17.3 17.3 0 0 1-3.297 2.083 377 377 0 0 1-3.54 1.646 24 24 0 0 0-3.248 1.84 7.84 7.84 0 0 0-2.424 2.615q-.873 1.55-.873 3.922v2.082h-3.879zm3.879-10.411a13 13 0 0 1 2.521-1.889 29 29 0 0 1 2.812-1.453q1.407-.678 2.716-1.355a13 13 0 0 0 2.375-1.501 6.05 6.05 0 0 0 1.649-2.083q.63-1.21.63-2.953 0-2.857-1.988-4.504-1.94-1.695-5.236-1.694h-5.479zm21.154-12.493h3.781v22.903h-3.781zm1.89-3.826q-1.067 0-1.793-.678-.68-.678-.679-1.743 0-1.065.679-1.743.726-.678 1.793-.678 1.116 0 1.794.678.68.678.679 1.743 0 1.065-.679 1.743-.678.678-1.794.678m35.401 13.558h4.024q-.582 3.874-2.861 6.973-2.279 3.05-5.721 4.843-3.443 1.791-7.563 1.791-3.395 0-6.351-1.21a16.9 16.9 0 0 1-5.237-3.487 16.4 16.4 0 0 1-3.491-5.133q-1.26-2.953-1.26-6.343c0-3.39.42-4.358 1.26-6.295a16.3 16.3 0 0 1 3.491-5.18 16.2 16.2 0 0 1 5.237-3.439q2.956-1.26 6.351-1.259 3.879 0 7.176 1.647 3.345 1.598 5.624 4.406a15.54 15.54 0 0 1 3.103 6.392h-4.073a12.1 12.1 0 0 0-2.521-4.552 11.9 11.9 0 0 0-4.121-3.099q-2.376-1.162-5.188-1.162-2.57 0-4.8.968a12.2 12.2 0 0 0-3.927 2.712 12.4 12.4 0 0 0-2.667 3.97q-.97 2.277-.97 4.891 0 2.615.97 4.89a13 13 0 0 0 2.667 4.02 12.6 12.6 0 0 0 3.927 2.663q2.23.969 4.8.969 3.006 0 5.527-1.308a12.7 12.7 0 0 0 4.267-3.583 12.4 12.4 0 0 0 2.327-5.085m17.748 13.607q-2.763 0-5.139-1.114a9.44 9.44 0 0 1-3.733-3.292q-1.406-2.13-1.406-5.23h3.879q0 1.743.824 3.1a5.8 5.8 0 0 0 2.278 2.13q1.455.775 3.297.775 2.619 0 4.267-1.405 1.648-1.452 1.648-3.728 0-1.647-.824-2.712t-2.23-1.791a18.4 18.4 0 0 0-3.006-1.356 71 71 0 0 1-3.297-1.356 16.6 16.6 0 0 1-3.054-1.743 7.8 7.8 0 0 1-2.182-2.518q-.825-1.55-.824-3.874 0-2.276 1.212-4.116 1.26-1.889 3.345-3.002 2.085-1.114 4.606-1.114 2.812 0 4.945 1.162a8.27 8.27 0 0 1 3.346 3.148q1.212 1.985 1.212 4.648h-3.879q0-2.372-1.6-3.825-1.551-1.5-4.024-1.501-1.406 0-2.618.63a4.9 4.9 0 0 0-1.891 1.646q-.68 1.016-.679 2.324 0 1.598.824 2.615.825 1.017 2.182 1.791 1.407.728 3.055 1.356 1.648.581 3.297 1.308a14 14 0 0 1 3.006 1.791 7.9 7.9 0 0 1 2.23 2.615q.824 1.55.824 3.874 0 2.518-1.309 4.503-1.26 1.986-3.491 3.147-2.23 1.114-5.091 1.114M63.6 123.633V92.159h16.436v3.631H65.2l2.279-2.179v20.628l-2.812 4.697q0-4.212 1.6-7.263 1.648-3.051 4.654-4.697 3.006-1.647 7.127-1.647h.727v3.632h-.727q-4.848 0-7.709 2.712-2.86 2.662-2.86 7.263v4.697zm23.919-15.737q0 2.614.97 4.89a13 13 0 0 0 2.666 4.02 12.6 12.6 0 0 0 3.927 2.663q2.23.968 4.8.968t4.8-.968a12.6 12.6 0 0 0 3.927-2.663 13 13 0 0 0 2.667-4.02q.97-2.276.97-4.89 0-2.615-.97-4.891a12.4 12.4 0 0 0-2.667-3.97 12.2 12.2 0 0 0-3.927-2.712q-2.23-.969-4.8-.968-2.57 0-4.8.968a12.2 12.2 0 0 0-3.927 2.712 12.4 12.4 0 0 0-2.666 3.97q-.97 2.276-.97 4.891m-3.976 0q0-3.39 1.26-6.295a16.3 16.3 0 0 1 3.492-5.181 16.2 16.2 0 0 1 5.236-3.438q2.957-1.26 6.351-1.26t6.352 1.26a15.7 15.7 0 0 1 5.187 3.438 15.9 15.9 0 0 1 3.54 5.181q1.26 2.905 1.26 6.295c0 3.39-.42 4.374-1.26 6.343a16 16 0 0 1-3.54 5.133 16.3 16.3 0 0 1-5.187 3.486q-2.958 1.21-6.352 1.211-3.394 0-6.351-1.211a16.9 16.9 0 0 1-5.236-3.486 16.4 16.4 0 0 1-3.491-5.133q-1.26-2.953-1.26-6.343zm40.718 0q0 2.614.969 4.89a13 13 0 0 0 2.667 4.02 12.6 12.6 0 0 0 3.927 2.663q2.23.968 4.8.968t4.8-.968a12.6 12.6 0 0 0 3.927-2.663 13 13 0 0 0 2.667-4.02q.969-2.276.969-4.89 0-2.615-.969-4.891a12.5 12.5 0 0 0-2.667-3.97 12.2 12.2 0 0 0-3.927-2.712q-2.23-.969-4.8-.968-2.57 0-4.8.968a12.2 12.2 0 0 0-3.927 2.712 12.5 12.5 0 0 0-2.667 3.97q-.969 2.276-.969 4.891m-3.976 0q0-3.39 1.26-6.295a16.3 16.3 0 0 1 3.491-5.181 16.2 16.2 0 0 1 5.237-3.438q2.956-1.26 6.351-1.26c3.395 0 4.38.42 6.351 1.26a15.7 15.7 0 0 1 5.188 3.438 15.9 15.9 0 0 1 3.539 5.181q1.261 2.905 1.261 6.295c0 3.39-.42 4.374-1.261 6.343a16 16 0 0 1-3.539 5.133 16.3 16.3 0 0 1-5.188 3.486q-2.957 1.21-6.351 1.211c-3.394.001-4.38-.404-6.351-1.211a16.9 16.9 0 0 1-5.237-3.486 16.4 16.4 0 0 1-3.491-5.133q-1.26-2.953-1.26-6.343m41.646 15.737V93.95l1.454 1.404q-2.57 0-5.139.194-2.521.195-4.364.436v-3.632a85 85 0 0 1 4.558-.435 76 76 0 0 1 10.812 0q2.715.194 4.606.435v3.632q-1.212-.146-2.764-.29a87 87 0 0 0-3.297-.243 60 60 0 0 0-3.442-.096l1.454-1.405v29.683zm20.65-27.843v3.535q0 1.598.581 2.76a4.37 4.37 0 0 0 1.794 1.792q1.164.629 2.715.629 1.989 0 3.346-1.259t1.357-3.05q0-1.987-1.406-3.196t-3.781-1.21h-4.606zm-3.879 27.843V92.159h8.485q2.666 0 4.654.968 2.037.92 3.151 2.615 1.164 1.695 1.164 3.922 0 2.373-1.212 4.213-1.164 1.791-3.345 2.76l-.049-1.114q2.618.484 4.461 1.695 1.89 1.162 2.909 2.954 1.018 1.743 1.018 3.922 0 2.76-1.406 4.939-1.406 2.13-3.879 3.389-2.472 1.21-5.673 1.211zm3.879-3.632h6.399q2.037-.048 3.588-.774 1.6-.775 2.473-2.083.921-1.355.921-3.05 0-1.743-.921-2.954-.873-1.21-2.715-1.937-1.794-.774-4.655-1.065-1.697-.194-2.957-.678t-2.133-1.307zm22.483 3.632v-21.596q0-3.051 1.261-5.375a9.36 9.36 0 0 1 3.636-3.632q2.328-1.307 5.333-1.307 3.055 0 5.334 1.307a9.03 9.03 0 0 1 3.587 3.632q1.31 2.325 1.309 5.375v21.596h-3.878v-1.017q0-4.794-2.909-7.699-2.86-2.905-8.34-2.905h-2.909v-3.632h1.94q6.06 0 9.648 2.276 3.636 2.228 4.509 6.101h-1.939v-14.72q0-1.936-.824-3.39a5.94 5.94 0 0 0-2.279-2.276q-1.406-.87-3.249-.871-1.842 0-3.297.871a5.93 5.93 0 0 0-2.278 2.276q-.776 1.454-.776 3.39v21.596zm42.798 0h-15.515V92.159h3.878V120h11.637zm20.738 0h-15.515V92.159h3.879V120H268.6z" fill="#fff"/></g><defs><linearGradient id="b" x1="349" y1="0" x2="349" y2="1545" gradientUnits="userSpaceOnUse"><stop stop-color="#202738"/><stop offset="1" stop-color="#070816"/></linearGradient><clipPath id="a"><rect width="698" height="1545" rx="10" fill="#fff"/></clipPath><pattern id="c" patternContentUnits="objectBoundingBox" width=".315" height=".142"><use xlink:href="#prefix__image0_2015_4234" transform="scale(.00143 .00065)"/></pattern></defs></svg>